<svg width="5918" height="5918" viewBox="0 0 5918 5918" fill="none" xmlns="http://www.w3.org/2000/svg">
<circle cx="2959" cy="2959" r="2787.5" fill="black" stroke="#2563EB" stroke-width="343"/>
<path d="M2617.95 3181.85H2777.84V3628H1667.51V3490.47L1862.07 3444.62V2207.93L1667.51 2162.09V2036.85L2297.03 2024.55V2162.09L2102.47 2207.93V3444.62H2572.1L2617.95 3181.85ZM3291.08 2576.93C3338.79 2535.93 3401.03 2494.93 3477.82 2453.93C3555.34 2412.18 3635.1 2391.31 3717.1 2391.31C3839.36 2391.31 3931.04 2427.84 3992.17 2500.89C4053.3 2573.2 4083.86 2674.21 4083.86 2803.91V3444.62L4254.94 3501.65V3628H3705.92V3501.65L3854.64 3444.62V2826.28C3854.64 2743.53 3838.61 2682.78 3806.56 2644.02C3774.5 2605.25 3721.95 2585.87 3648.89 2585.87C3590.75 2585.87 3537.08 2599.66 3487.88 2627.24C3439.43 2654.82 3398.8 2684.64 3366 2716.7C3333.2 2748.75 3316.8 2766.27 3316.8 2769.25V3444.62L3465.52 3501.65V3628H2893.02V3501.65L3087.58 3444.62V2597.05L2893.02 2551.21V2425.97L3270.96 2414.79L3291.08 2576.93Z" fill="white"/>
</svg>
