<svg width="5232" height="5232" viewBox="0 0 5232 5232" fill="none" xmlns="http://www.w3.org/2000/svg">
<circle cx="2616" cy="2616" r="2616" fill="black"/>
<circle cx="2616" cy="2616" r="2616" stroke="#2563EB"/>
<path d="M2274.95 2838.85H2434.84V3285H1324.51V3147.47L1519.07 3101.62V1864.93L1324.51 1819.09V1693.85L1954.03 1681.55V1819.09L1759.47 1864.93V3101.62H2229.1L2274.95 2838.85ZM2948.08 2233.93C2995.79 2192.93 3058.03 2151.93 3134.82 2110.93C3212.34 2069.18 3292.1 2048.31 3374.1 2048.31C3496.36 2048.31 3588.04 2084.84 3649.17 2157.89C3710.3 2230.2 3740.86 2331.21 3740.86 2460.91V3101.62L3911.94 3158.65V3285H3362.92V3158.65L3511.64 3101.62V2483.28C3511.64 2400.53 3495.61 2339.78 3463.56 2301.02C3431.5 2262.25 3378.95 2242.87 3305.89 2242.87C3247.75 2242.87 3194.08 2256.66 3144.88 2284.24C3096.43 2311.82 3055.8 2341.64 3023 2373.7C2990.2 2405.75 2973.8 2423.27 2973.8 2426.25V3101.62L3122.52 3158.65V3285H2550.02V3158.65L2744.58 3101.62V2254.05L2550.02 2208.21V2082.97L2927.96 2071.79L2948.08 2233.93Z" fill="white"/>
</svg>
