<svg width="5232" height="5232" viewBox="0 0 5232 5232" fill="none" xmlns="http://www.w3.org/2000/svg">
<circle cx="2616" cy="2616" r="2616" fill="black"/>
<circle cx="2616" cy="2616" r="2616" stroke="#2563EB"/>
<path d="M2928.31 2199.71C3280.14 2551.9 3275.32 3116.56 2930.43 3463.36C2929.79 3464.06 2929.02 3464.83 2928.31 3465.53L2532.6 3861.25C2183.57 4210.27 1615.73 4210.23 1266.77 3861.25C917.745 3512.29 917.745 2944.39 1266.77 2595.43L1485.27 2376.92C1543.22 2318.98 1643.01 2357.49 1646 2439.38C1649.81 2543.73 1668.53 2648.58 1703.06 2749.83C1714.75 2784.12 1706.4 2822.04 1680.78 2847.65L1603.72 2924.72C1438.68 3089.75 1433.5 3358.48 1596.91 3525.13C1761.94 3693.42 2033.18 3694.42 2199.47 3528.13L2595.19 3132.47C2761.2 2966.46 2760.5 2698.14 2595.19 2532.83C2573.4 2511.08 2551.44 2494.18 2534.3 2482.37C2522.17 2474.04 2512.15 2462.99 2505.05 2450.1C2497.94 2437.21 2493.95 2422.84 2493.39 2408.14C2491.06 2345.91 2513.1 2281.79 2562.27 2232.62L2686.25 2108.63C2718.77 2076.12 2769.77 2072.13 2807.47 2098.44C2850.64 2128.59 2891.08 2162.47 2928.31 2199.71V2199.71ZM3758.23 1369.75C3409.27 1020.77 2841.43 1020.73 2492.41 1369.75L2096.69 1765.47C2095.98 1766.17 2095.21 1766.94 2094.57 1767.64C1749.69 2114.44 1744.86 2679.1 2096.69 3031.29C2133.92 3068.52 2174.36 3102.41 2217.53 3132.55C2255.23 3158.86 2306.23 3154.87 2338.74 3122.36L2462.72 2998.37C2511.89 2949.2 2533.94 2885.08 2531.61 2822.86C2531.04 2808.15 2527.05 2793.78 2519.95 2780.89C2512.85 2768.01 2502.83 2756.96 2490.7 2748.62C2473.55 2736.82 2451.6 2719.92 2429.8 2698.16C2264.49 2532.85 2263.8 2264.53 2429.8 2098.52L2825.52 1702.86C2991.81 1536.57 3263.05 1537.57 3428.08 1705.87C3591.49 1872.52 3586.32 2141.24 3421.28 2306.27L3344.21 2383.34C3318.6 2408.96 3310.24 2446.88 3321.94 2481.16C3356.47 2582.41 3375.18 2687.26 3379 2791.62C3382 2873.51 3481.78 2912.02 3539.72 2854.07L3758.23 2635.57C4107.26 2286.61 4107.26 1718.71 3758.23 1369.75V1369.75Z" fill="#3BA3EF"/>
</svg>
